<svg width="38" height="34" viewBox="0 0 38 34" fill="none" xmlns="http://www.w3.org/2000/svg">
<g filter="url(#filter0_d_0_26)">
<path d="M18.0193 1.39404C17.8589 1.11733 17.5115 0.982458 17.2456 0.954834C16.9273 0.960028 16.6374 1.13811 16.4864 1.4209L13.375 7.24549L15.0068 9.11612L16.5155 6.68297C16.8364 6.16591 17.6838 6.16591 18.0047 6.68297L19.5135 9.11607L21.2852 7.03748L18.0193 1.39404Z" fill="#415167"/>
<path d="M22.75 9.59615L22.2335 8.70215L20.152 11.2304C19.9802 11.4679 19.7313 11.623 19.4102 11.5927C19.1192 11.5823 18.8522 11.4262 18.6977 11.1767L17.2451 8.83054L15.7925 11.1767C15.638 11.4263 15.371 11.5823 15.08 11.5927C15.0689 11.5936 15.0577 11.5936 15.0474 11.5936C14.7675 11.5936 14.504 11.4592 14.3382 11.2304L12.4435 8.96136L4.10463 24.4857C3.95869 24.7604 3.96555 25.0933 4.12438 25.361C4.2832 25.6297 4.56996 25.7935 4.879 25.7935H14.7786C14.5262 25.0756 14.5704 24.2742 14.9485 23.5982L22.75 9.59615Z" fill="#415167"/>
<path d="M25.9508 10.3034C25.6387 9.7454 24.7246 9.7454 24.4124 10.3034L22.5742 13.5865L25.1816 16.4494L27.7891 13.5865L25.9508 10.3034Z" fill="#415167"/>
<path d="M33.8866 24.4724L28.6612 15.2075L25.8278 18.383C25.6605 18.5847 25.4133 18.7016 25.1524 18.7016C24.8915 18.7016 24.6443 18.5847 24.4769 18.383L21.6436 15.2075L16.4767 24.4725C16.3231 24.7469 16.3257 25.0828 16.4836 25.3547C16.6415 25.6265 16.9298 25.7935 17.2422 25.7935H33.121C33.4334 25.7935 33.7218 25.6265 33.8797 25.3546C34.0376 25.0827 34.0402 24.7469 33.8866 24.4724Z" fill="#415167"/>
</g>
<defs>
<filter id="filter0_d_0_26" x="0" y="0.954834" width="38" height="32.8387" filterUnits="userSpaceOnUse" color-interpolation-filters="sRGB">
<feFlood flood-opacity="0" result="BackgroundImageFix"/>
<feColorMatrix in="SourceAlpha" type="matrix" values="0 0 0 0 0 0 0 0 0 0 0 0 0 0 0 0 0 0 127 0" result="hardAlpha"/>
<feOffset dy="4"/>
<feGaussianBlur stdDeviation="2"/>
<feComposite in2="hardAlpha" operator="out"/>
<feColorMatrix type="matrix" values="0 0 0 0 0 0 0 0 0 0 0 0 0 0 0 0 0 0 0.25 0"/>
<feBlend mode="normal" in2="BackgroundImageFix" result="effect1_dropShadow_0_26"/>
<feBlend mode="normal" in="SourceGraphic" in2="effect1_dropShadow_0_26" result="shape"/>
</filter>
</defs>
</svg>
